<?xml version="1.0" encoding="UTF-8" standalone="no"?>
<!DOCTYPE svg PUBLIC "-//W3C//DTD SVG 1.1//EN"
 "http://www.w3.org/Graphics/SVG/1.1/DTD/svg11.dtd">
<!-- Generated by graphviz version 12.2.1 (20241206.2353)
 -->
<!-- Title: login_flow Pages: 1 -->
<svg width="589pt" height="136pt"
 viewBox="0.00 0.00 588.61 135.57" xmlns="http://www.w3.org/2000/svg" xmlns:xlink="http://www.w3.org/1999/xlink">
<g id="graph0" class="graph" transform="scale(1 1) rotate(0) translate(43.2 92.37)">
<title>login_flow</title>
<polygon fill="#1a1d23" stroke="none" points="-43.2,43.2 -43.2,-92.37 545.41,-92.37 545.41,43.2 -43.2,43.2"/>
<!-- login -->
<g id="node1" class="node">
<title>login</title>
<path fill="#243044" stroke="#5e6a7d" stroke-width="1.2" d="M59.82,-49.17C59.82,-49.17 12,-49.17 12,-49.17 6,-49.17 0,-43.17 0,-37.17 0,-37.17 0,-12 0,-12 0,-6 6,0 12,0 12,0 59.82,0 59.82,0 65.82,0 71.82,-6 71.82,-12 71.82,-12 71.82,-37.17 71.82,-37.17 71.82,-43.17 65.82,-49.17 59.82,-49.17"/>
<text text-anchor="middle" x="35.91" y="-21.01" font-family="PingFang SC, Helvetica, Arial" font-size="16.00" fill="#e8eef6">登录</text>
</g>
<!-- code -->
<g id="node2" class="node">
<title>code</title>
<path fill="#2a3a2e" stroke="#5e6a7d" stroke-width="1.2" d="M282.89,-49.17C282.89,-49.17 219.32,-49.17 219.32,-49.17 213.32,-49.17 207.32,-43.17 207.32,-37.17 207.32,-37.17 207.32,-12 207.32,-12 207.32,-6 213.32,0 219.32,0 219.32,0 282.89,0 282.89,0 288.89,0 294.89,-6 294.89,-12 294.89,-12 294.89,-37.17 294.89,-37.17 294.89,-43.17 288.89,-49.17 282.89,-49.17"/>
<text text-anchor="middle" x="251.1" y="-21.01" font-family="PingFang SC, Helvetica, Arial" font-size="16.00" fill="#e8eef6">验证码</text>
</g>
<!-- login&#45;&gt;code -->
<g id="edge1" class="edge">
<title>login&#45;&gt;code</title>
<path fill="none" stroke="#8b9bb4" stroke-width="1.6" d="M72.11,-24.59C106.1,-24.59 157.99,-24.59 196.99,-24.59"/>
<polygon fill="#8b9bb4" stroke="#8b9bb4" stroke-width="1.6" points="196.7,-27.39 204.7,-24.59 196.7,-21.79 196.7,-27.39"/>
<text text-anchor="middle" x="139.57" y="-30.44" font-family="PingFang SC, Helvetica, Arial" font-size="12.00" fill="#c5d0de"> 提交账号 </text>
</g>
<!-- ok -->
<g id="node3" class="node">
<title>ok</title>
<path fill="#3d2f1e" stroke="#c4a35a" stroke-width="1.2" d="M490.21,-49.17C490.21,-49.17 442.39,-49.17 442.39,-49.17 436.39,-49.17 430.39,-43.17 430.39,-37.17 430.39,-37.17 430.39,-12 430.39,-12 430.39,-6 436.39,0 442.39,0 442.39,0 490.21,0 490.21,0 496.21,0 502.21,-6 502.21,-12 502.21,-12 502.21,-37.17 502.21,-37.17 502.21,-43.17 496.21,-49.17 490.21,-49.17"/>
<text text-anchor="middle" x="466.3" y="-21.01" font-family="PingFang SC, Helvetica, Arial" font-size="16.00" fill="#e8eef6">成功</text>
</g>
<!-- code&#45;&gt;ok -->
<g id="edge2" class="edge">
<title>code&#45;&gt;ok</title>
<path fill="none" stroke="#8b9bb4" stroke-width="1.6" d="M295.25,-24.59C331.5,-24.59 383.16,-24.59 420.01,-24.59"/>
<polygon fill="#8b9bb4" stroke="#8b9bb4" stroke-width="1.6" points="419.56,-27.39 427.56,-24.59 419.56,-21.79 419.56,-27.39"/>
<text text-anchor="middle" x="362.64" y="-30.44" font-family="PingFang SC, Helvetica, Arial" font-size="12.00" fill="#c5d0de"> 校验通过 </text>
</g>
</g>
</svg>
